<svg width="344" height="194" viewBox="0 0 344 194" fill="none" xmlns="http://www.w3.org/2000/svg">
<rect width="344" height="194" fill="url(#paint0_linear_9_963)"/>
<g opacity="0.8">
<path d="M173 25C133.235 25 101 57.2355 101 97C101 136.765 133.236 169 173 169C212.765 169 245 136.764 245 97C245 57.2355 212.764 25 173 25Z" fill="url(#paint1_linear_9_963)"/>
<path d="M221.931 84.9375H149.394C147.364 84.9375 145.719 86.5832 145.719 88.6132V132.722C145.719 134.752 147.364 136.397 149.394 136.397H221.931C222.966 136.397 224.332 137.086 225 136.397C225.642 135.736 225.607 133.717 225.607 132.722V88.6132C225.607 86.5832 223.962 84.9375 221.931 84.9375Z" fill="url(#paint2_linear_9_963)"/>
<path d="M193.433 89.8846V132.722C193.433 133.698 193.045 134.633 192.355 135.324C191.665 136.014 190.729 136.401 189.753 136.401H127.315C126.339 136.401 124.698 136.971 124.008 136.281C123.318 135.591 123.636 133.698 123.636 132.722V86.5892C123.635 86.0706 123.744 85.5578 123.955 85.0843C124.167 84.6108 124.476 84.1873 124.862 83.8416L152.424 59.3341C153.087 58.7456 153.94 58.4162 154.826 58.4065C155.713 58.3967 156.573 58.7072 157.248 59.281L193.274 89.8846H193.433Z" fill="url(#paint3_linear_9_963)"/>
<path d="M193.426 89.8808V84.9335L157.789 54.5547H186.001C186.895 54.5588 187.761 54.869 188.454 55.4338L228.895 88.4497C229.018 88.5579 229.105 88.7004 229.146 88.8589C229.187 89.0173 229.18 89.1844 229.125 89.3386C229.07 89.4927 228.97 89.6268 228.838 89.7234C228.706 89.8201 228.548 89.8749 228.384 89.8808H193.426Z" fill="url(#paint4_linear_9_963)"/>
<path d="M167.937 104.648H148.051C147.501 104.648 147.055 105.094 147.055 105.645V136.397H168.933V105.645C168.933 105.094 168.487 104.648 167.937 104.648Z" fill="url(#paint5_linear_9_963)"/>
<path d="M225.619 89.8828H193.445V97.3487H225.619V89.8828Z" fill="url(#paint6_linear_9_963)"/>
<path d="M159.515 56.0266L157.855 54.5547L157.822 54.5874L157.785 54.5547L155.451 56.6317L118.604 88.4375C118.482 88.5425 118.395 88.6822 118.354 88.838C118.313 88.9938 118.321 89.1583 118.376 89.3096C118.431 89.461 118.531 89.592 118.662 89.6852C118.793 89.7785 118.95 89.8296 119.111 89.8317L122.905 89.8808L157.855 59.7882L193.267 89.8808H193.426L199.15 89.8072L159.515 56.0266Z" fill="url(#paint7_linear_9_963)"/>
<path d="M157.676 93.6101C161.549 93.6101 164.688 90.4707 164.688 86.598C164.688 82.7253 161.549 79.5859 157.676 79.5859C153.803 79.5859 150.664 82.7253 150.664 86.598C150.664 90.4707 153.803 93.6101 157.676 93.6101Z" fill="url(#paint8_linear_9_963)"/>
<path d="M140.374 104.648H129.16C128.61 104.648 128.164 105.094 128.164 105.645V123.515C128.164 124.065 128.61 124.511 129.16 124.511H140.374C140.924 124.511 141.37 124.065 141.37 123.515V105.645C141.37 105.094 140.924 104.648 140.374 104.648Z" fill="url(#paint9_linear_9_963)"/>
<path d="M185.687 111.305H174.473C173.923 111.305 173.477 111.751 173.477 112.301V123.515C173.477 124.065 173.923 124.511 174.473 124.511H185.687C186.237 124.511 186.683 124.065 186.683 123.515V112.301C186.683 111.751 186.237 111.305 185.687 111.305Z" fill="url(#paint10_linear_9_963)"/>
<path d="M185.687 104.695H174.473C173.923 104.695 173.477 105.141 173.477 105.692V107.551C173.477 108.101 173.923 108.547 174.473 108.547H185.687C186.237 108.547 186.683 108.101 186.683 107.551V105.692C186.683 105.141 186.237 104.695 185.687 104.695Z" fill="url(#paint11_linear_9_963)"/>
<path d="M227.482 117.925C227.224 116.857 225.705 116.857 225.447 117.925L224.579 121.52C224.487 121.901 224.189 122.199 223.808 122.291L220.213 123.159C219.145 123.417 219.145 124.936 220.213 125.194L223.808 126.061C224.189 126.153 224.487 126.451 224.579 126.833L225.447 130.427C225.705 131.495 227.224 131.495 227.482 130.427L228.349 126.833C228.441 126.451 228.739 126.153 229.121 126.061L232.715 125.194C233.783 124.936 233.783 123.417 232.715 123.159L229.121 122.291C228.739 122.199 228.441 121.901 228.349 121.52L227.482 117.925Z" fill="url(#paint12_linear_9_963)"/>
<path d="M99.0996 98.8428C98.9386 98.1759 97.99 98.1759 97.829 98.8428L97.2871 101.088C97.2296 101.326 97.0435 101.512 96.8052 101.569L94.5605 102.111C93.8935 102.272 93.8935 103.221 94.5605 103.382L96.8052 103.924C97.0435 103.981 97.2296 104.167 97.2871 104.406L97.829 106.65C97.99 107.317 98.9386 107.317 99.0996 106.65L99.6415 104.406C99.699 104.167 99.8851 103.981 100.123 103.924L102.368 103.382C103.035 103.221 103.035 102.272 102.368 102.111L100.123 101.569C99.8851 101.512 99.699 101.326 99.6415 101.088L99.0996 98.8428Z" fill="url(#paint13_linear_9_963)"/>
<path d="M130.794 50.6831C130.536 49.6151 129.017 49.6151 128.759 50.6831L127.892 54.2774C127.8 54.6591 127.502 54.957 127.12 55.0492L123.526 55.9168C122.458 56.1746 122.458 57.6937 123.526 57.9515L127.12 58.8191C127.502 58.9112 127.8 59.2092 127.892 59.5909L128.759 63.1852C129.017 64.2532 130.536 64.2532 130.794 63.1852L131.662 59.5909C131.754 59.2092 132.052 58.9112 132.434 58.8191L136.028 57.9515C137.096 57.6937 137.096 56.1746 136.028 55.9168L132.434 55.0492C132.052 54.957 131.754 54.6591 131.662 54.2774L130.794 50.6831Z" fill="url(#paint14_linear_9_963)"/>
<circle cx="3.05241" cy="3.05241" r="2.39832" transform="matrix(-1 0 0 1 162.273 40.4844)" stroke="url(#paint15_linear_9_963)" stroke-width="1.30817"/>
<path d="M233.324 70.6167C233.866 70.2211 233.777 69.3867 233.163 69.1147L229.02 67.279C228.406 67.007 227.728 67.5015 227.8 68.169L228.281 72.675C228.353 73.3425 229.12 73.6825 229.662 73.2869L233.324 70.6167Z" fill="url(#paint16_linear_9_963)"/>
<path d="M251.416 136.981C250.489 136.746 249.655 137.603 249.915 138.523L251.67 144.737C251.93 145.658 253.089 145.952 253.756 145.266L258.26 140.64C258.927 139.954 258.603 138.803 257.675 138.568L251.416 136.981Z" fill="url(#paint17_linear_9_963)"/>
<circle cx="4.85938" cy="4.85938" r="3.81808" transform="matrix(-1 0 0 1 90.7188 136)" stroke="url(#paint18_linear_9_963)" stroke-width="2.08259"/>
</g>
<rect x="101.5" y="136.781" width="143.111" height="31" rx="11.5" fill="white"/>
<path d="M120.574 148.715C121.352 148.715 121.992 148.809 122.496 148.996C123.004 149.184 123.381 149.467 123.627 149.846C123.873 150.225 123.996 150.703 123.996 151.281C123.996 151.672 123.922 152.014 123.773 152.307C123.625 152.6 123.43 152.848 123.188 153.051C122.945 153.254 122.684 153.42 122.402 153.549L124.922 157.281H122.906L120.861 153.994H119.895V157.281H118.078V148.715H120.574ZM120.445 150.203H119.895V152.518H120.48C121.082 152.518 121.512 152.418 121.77 152.219C122.031 152.016 122.162 151.719 122.162 151.328C122.162 150.922 122.021 150.633 121.74 150.461C121.463 150.289 121.031 150.203 120.445 150.203ZM128.561 150.607C129.166 150.607 129.688 150.725 130.125 150.959C130.562 151.189 130.9 151.525 131.139 151.967C131.377 152.408 131.496 152.947 131.496 153.584V154.451H127.271C127.291 154.955 127.441 155.352 127.723 155.641C128.008 155.926 128.402 156.068 128.906 156.068C129.324 156.068 129.707 156.025 130.055 155.939C130.402 155.854 130.76 155.725 131.127 155.553V156.936C130.803 157.096 130.463 157.213 130.107 157.287C129.756 157.361 129.328 157.398 128.824 157.398C128.168 157.398 127.586 157.277 127.078 157.035C126.574 156.793 126.178 156.424 125.889 155.928C125.604 155.432 125.461 154.807 125.461 154.053C125.461 153.287 125.59 152.65 125.848 152.143C126.109 151.631 126.473 151.248 126.938 150.994C127.402 150.736 127.943 150.607 128.561 150.607ZM128.572 151.879C128.225 151.879 127.936 151.99 127.705 152.213C127.479 152.436 127.348 152.785 127.312 153.262H129.82C129.816 152.996 129.768 152.76 129.674 152.553C129.584 152.346 129.447 152.182 129.264 152.061C129.084 151.939 128.854 151.879 128.572 151.879ZM136.881 160.164V157.416C136.881 157.252 136.887 157.088 136.898 156.924C136.914 156.756 136.934 156.592 136.957 156.432H136.881C136.713 156.701 136.48 156.93 136.184 157.117C135.891 157.305 135.504 157.398 135.023 157.398C134.285 157.398 133.688 157.113 133.23 156.543C132.777 155.969 132.551 155.127 132.551 154.018C132.551 153.271 132.656 152.646 132.867 152.143C133.078 151.635 133.371 151.252 133.746 150.994C134.125 150.736 134.562 150.607 135.059 150.607C135.539 150.607 135.928 150.701 136.225 150.889C136.525 151.072 136.77 151.299 136.957 151.568H137.004L137.162 150.73H138.674V160.164H136.881ZM135.662 155.998C135.99 155.998 136.25 155.934 136.441 155.805C136.637 155.676 136.777 155.482 136.863 155.225C136.949 154.963 136.996 154.637 137.004 154.246V154.029C137.004 153.393 136.906 152.906 136.711 152.57C136.516 152.23 136.156 152.061 135.633 152.061C135.207 152.061 134.891 152.23 134.684 152.57C134.477 152.91 134.373 153.4 134.373 154.041C134.373 154.693 134.479 155.184 134.689 155.512C134.9 155.836 135.225 155.998 135.662 155.998ZM146.555 150.73V157.281H145.184L144.943 156.443H144.85C144.709 156.666 144.533 156.848 144.322 156.988C144.111 157.129 143.879 157.232 143.625 157.299C143.371 157.365 143.107 157.398 142.834 157.398C142.365 157.398 141.957 157.316 141.609 157.152C141.262 156.984 140.99 156.725 140.795 156.373C140.604 156.021 140.508 155.564 140.508 155.002V150.73H142.295V154.557C142.295 155.025 142.379 155.379 142.547 155.617C142.715 155.855 142.982 155.975 143.35 155.975C143.713 155.975 143.998 155.893 144.205 155.729C144.412 155.561 144.557 155.316 144.639 154.996C144.725 154.672 144.768 154.277 144.768 153.812V150.73H146.555ZM151.131 150.607C151.736 150.607 152.258 150.725 152.695 150.959C153.133 151.189 153.471 151.525 153.709 151.967C153.947 152.408 154.066 152.947 154.066 153.584V154.451H149.842C149.861 154.955 150.012 155.352 150.293 155.641C150.578 155.926 150.973 156.068 151.477 156.068C151.895 156.068 152.277 156.025 152.625 155.939C152.973 155.854 153.33 155.725 153.697 155.553V156.936C153.373 157.096 153.033 157.213 152.678 157.287C152.326 157.361 151.898 157.398 151.395 157.398C150.738 157.398 150.156 157.277 149.648 157.035C149.145 156.793 148.748 156.424 148.459 155.928C148.174 155.432 148.031 154.807 148.031 154.053C148.031 153.287 148.16 152.65 148.418 152.143C148.68 151.631 149.043 151.248 149.508 150.994C149.973 150.736 150.514 150.607 151.131 150.607ZM151.143 151.879C150.795 151.879 150.506 151.99 150.275 152.213C150.049 152.436 149.918 152.785 149.883 153.262H152.391C152.387 152.996 152.338 152.76 152.244 152.553C152.154 152.346 152.018 152.182 151.834 152.061C151.654 151.939 151.424 151.879 151.143 151.879ZM160.09 155.336C160.09 155.781 159.984 156.158 159.773 156.467C159.566 156.771 159.256 157.004 158.842 157.164C158.428 157.32 157.912 157.398 157.295 157.398C156.838 157.398 156.445 157.369 156.117 157.311C155.793 157.252 155.465 157.154 155.133 157.018V155.541C155.488 155.701 155.869 155.834 156.275 155.939C156.686 156.041 157.045 156.092 157.354 156.092C157.701 156.092 157.949 156.041 158.098 155.939C158.25 155.834 158.326 155.697 158.326 155.529C158.326 155.42 158.295 155.322 158.232 155.236C158.174 155.146 158.045 155.047 157.846 154.938C157.646 154.824 157.334 154.678 156.908 154.498C156.498 154.326 156.16 154.152 155.895 153.977C155.633 153.801 155.438 153.594 155.309 153.355C155.184 153.113 155.121 152.807 155.121 152.436C155.121 151.83 155.355 151.375 155.824 151.07C156.297 150.762 156.928 150.607 157.717 150.607C158.123 150.607 158.51 150.648 158.877 150.73C159.248 150.812 159.629 150.943 160.02 151.123L159.48 152.412C159.156 152.271 158.85 152.156 158.561 152.066C158.275 151.977 157.984 151.932 157.688 151.932C157.426 151.932 157.229 151.967 157.096 152.037C156.963 152.107 156.896 152.215 156.896 152.359C156.896 152.465 156.93 152.559 156.996 152.641C157.066 152.723 157.199 152.814 157.395 152.916C157.594 153.014 157.885 153.141 158.268 153.297C158.639 153.449 158.961 153.609 159.234 153.777C159.508 153.941 159.719 154.146 159.867 154.393C160.016 154.635 160.09 154.949 160.09 155.336ZM164.244 155.975C164.439 155.975 164.629 155.955 164.812 155.916C165 155.877 165.186 155.828 165.369 155.77V157.1C165.178 157.186 164.939 157.256 164.654 157.311C164.373 157.369 164.064 157.398 163.729 157.398C163.338 157.398 162.986 157.336 162.674 157.211C162.365 157.082 162.121 156.861 161.941 156.549C161.766 156.232 161.678 155.793 161.678 155.23V152.072H160.822V151.316L161.807 150.719L162.322 149.336H163.465V150.73H165.299V152.072H163.465V155.23C163.465 155.48 163.535 155.668 163.676 155.793C163.82 155.914 164.01 155.975 164.244 155.975ZM172.693 148.715C173.799 148.715 174.605 148.953 175.113 149.43C175.621 149.902 175.875 150.555 175.875 151.387C175.875 151.762 175.818 152.121 175.705 152.465C175.592 152.805 175.406 153.107 175.148 153.373C174.895 153.639 174.555 153.85 174.129 154.006C173.703 154.158 173.178 154.234 172.553 154.234H171.773V157.281H169.957V148.715H172.693ZM172.6 150.203H171.773V152.746H172.371C172.711 152.746 173.006 152.701 173.256 152.611C173.506 152.521 173.699 152.381 173.836 152.189C173.973 151.998 174.041 151.752 174.041 151.451C174.041 151.029 173.924 150.717 173.689 150.514C173.455 150.307 173.092 150.203 172.6 150.203ZM179.139 148.164V150.021C179.139 150.346 179.127 150.654 179.104 150.947C179.084 151.24 179.068 151.447 179.057 151.568H179.15C179.291 151.342 179.457 151.158 179.648 151.018C179.844 150.877 180.059 150.773 180.293 150.707C180.527 150.641 180.779 150.607 181.049 150.607C181.521 150.607 181.934 150.691 182.285 150.859C182.637 151.023 182.91 151.283 183.105 151.639C183.301 151.99 183.398 152.447 183.398 153.01V157.281H181.611V153.455C181.611 152.986 181.525 152.633 181.354 152.395C181.182 152.156 180.916 152.037 180.557 152.037C180.197 152.037 179.914 152.121 179.707 152.289C179.5 152.453 179.354 152.697 179.268 153.021C179.182 153.342 179.139 153.734 179.139 154.199V157.281H177.352V148.164H179.139ZM191.191 153.994C191.191 154.541 191.117 155.025 190.969 155.447C190.824 155.869 190.611 156.227 190.33 156.52C190.053 156.809 189.717 157.027 189.322 157.176C188.932 157.324 188.49 157.398 187.998 157.398C187.537 157.398 187.113 157.324 186.727 157.176C186.344 157.027 186.01 156.809 185.725 156.52C185.443 156.227 185.225 155.869 185.068 155.447C184.916 155.025 184.84 154.541 184.84 153.994C184.84 153.268 184.969 152.652 185.227 152.148C185.484 151.645 185.852 151.262 186.328 151C186.805 150.738 187.373 150.607 188.033 150.607C188.646 150.607 189.189 150.738 189.662 151C190.139 151.262 190.512 151.645 190.781 152.148C191.055 152.652 191.191 153.268 191.191 153.994ZM186.662 153.994C186.662 154.424 186.709 154.785 186.803 155.078C186.896 155.371 187.043 155.592 187.242 155.74C187.441 155.889 187.701 155.963 188.021 155.963C188.338 155.963 188.594 155.889 188.789 155.74C188.988 155.592 189.133 155.371 189.223 155.078C189.316 154.785 189.363 154.424 189.363 153.994C189.363 153.561 189.316 153.201 189.223 152.916C189.133 152.627 188.988 152.41 188.789 152.266C188.59 152.121 188.33 152.049 188.01 152.049C187.537 152.049 187.193 152.211 186.979 152.535C186.768 152.859 186.662 153.346 186.662 153.994ZM195.428 155.975C195.623 155.975 195.812 155.955 195.996 155.916C196.184 155.877 196.369 155.828 196.553 155.77V157.1C196.361 157.186 196.123 157.256 195.838 157.311C195.557 157.369 195.248 157.398 194.912 157.398C194.521 157.398 194.17 157.336 193.857 157.211C193.549 157.082 193.305 156.861 193.125 156.549C192.949 156.232 192.861 155.793 192.861 155.23V152.072H192.006V151.316L192.99 150.719L193.506 149.336H194.648V150.73H196.482V152.072H194.648V155.23C194.648 155.48 194.719 155.668 194.859 155.793C195.004 155.914 195.193 155.975 195.428 155.975ZM203.836 153.994C203.836 154.541 203.762 155.025 203.613 155.447C203.469 155.869 203.256 156.227 202.975 156.52C202.697 156.809 202.361 157.027 201.967 157.176C201.576 157.324 201.135 157.398 200.643 157.398C200.182 157.398 199.758 157.324 199.371 157.176C198.988 157.027 198.654 156.809 198.369 156.52C198.088 156.227 197.869 155.869 197.713 155.447C197.561 155.025 197.484 154.541 197.484 153.994C197.484 153.268 197.613 152.652 197.871 152.148C198.129 151.645 198.496 151.262 198.973 151C199.449 150.738 200.018 150.607 200.678 150.607C201.291 150.607 201.834 150.738 202.307 151C202.783 151.262 203.156 151.645 203.426 152.148C203.699 152.652 203.836 153.268 203.836 153.994ZM199.307 153.994C199.307 154.424 199.354 154.785 199.447 155.078C199.541 155.371 199.688 155.592 199.887 155.74C200.086 155.889 200.346 155.963 200.666 155.963C200.982 155.963 201.238 155.889 201.434 155.74C201.633 155.592 201.777 155.371 201.867 155.078C201.961 154.785 202.008 154.424 202.008 153.994C202.008 153.561 201.961 153.201 201.867 152.916C201.777 152.627 201.633 152.41 201.434 152.266C201.234 152.121 200.975 152.049 200.654 152.049C200.182 152.049 199.838 152.211 199.623 152.535C199.412 152.859 199.307 153.346 199.307 153.994ZM209.883 155.336C209.883 155.781 209.777 156.158 209.566 156.467C209.359 156.771 209.049 157.004 208.635 157.164C208.221 157.32 207.705 157.398 207.088 157.398C206.631 157.398 206.238 157.369 205.91 157.311C205.586 157.252 205.258 157.154 204.926 157.018V155.541C205.281 155.701 205.662 155.834 206.068 155.939C206.479 156.041 206.838 156.092 207.146 156.092C207.494 156.092 207.742 156.041 207.891 155.939C208.043 155.834 208.119 155.697 208.119 155.529C208.119 155.42 208.088 155.322 208.025 155.236C207.967 155.146 207.838 155.047 207.639 154.938C207.439 154.824 207.127 154.678 206.701 154.498C206.291 154.326 205.953 154.152 205.688 153.977C205.426 153.801 205.23 153.594 205.102 153.355C204.977 153.113 204.914 152.807 204.914 152.436C204.914 151.83 205.148 151.375 205.617 151.07C206.09 150.762 206.721 150.607 207.51 150.607C207.916 150.607 208.303 150.648 208.67 150.73C209.041 150.812 209.422 150.943 209.812 151.123L209.273 152.412C208.949 152.271 208.643 152.156 208.354 152.066C208.068 151.977 207.777 151.932 207.48 151.932C207.219 151.932 207.021 151.967 206.889 152.037C206.756 152.107 206.689 152.215 206.689 152.359C206.689 152.465 206.723 152.559 206.789 152.641C206.859 152.723 206.992 152.814 207.188 152.916C207.387 153.014 207.678 153.141 208.061 153.297C208.432 153.449 208.754 153.609 209.027 153.777C209.301 153.941 209.512 154.146 209.66 154.393C209.809 154.635 209.883 154.949 209.883 155.336Z" fill="#0076D6"/>
<path d="M226.889 152.281L223 148.392L224.111 147.281L229.111 152.281L224.111 157.281L223 156.17L226.889 152.281Z" fill="#80BCE9"/>
<rect x="101.5" y="136.781" width="143.111" height="31" rx="11.5" stroke="#D6EFFF"/>
<defs>
<linearGradient id="paint0_linear_9_963" x1="172" y1="0" x2="172" y2="194" gradientUnits="userSpaceOnUse">
<stop stop-color="#D6EFFF" stop-opacity="0"/>
<stop offset="1" stop-color="#D6EAFF" stop-opacity="0.54"/>
</linearGradient>
<linearGradient id="paint1_linear_9_963" x1="173.555" y1="192.445" x2="172.08" y2="-60.4081" gradientUnits="userSpaceOnUse">
<stop stop-color="white" stop-opacity="0"/>
<stop offset="1" stop-color="#9DC4FF"/>
<stop offset="1" stop-color="#9DD0FF"/>
</linearGradient>
<linearGradient id="paint2_linear_9_963" x1="177.086" y1="118.689" x2="228.845" y2="188.143" gradientUnits="userSpaceOnUse">
<stop stop-color="#49A0F2"/>
<stop offset="1" stop-color="#F7F7FF"/>
</linearGradient>
<linearGradient id="paint3_linear_9_963" x1="235.872" y1="164.017" x2="137.002" y2="57.5235" gradientUnits="userSpaceOnUse">
<stop stop-color="#49A0F2"/>
<stop offset="1" stop-color="#F7F7FF"/>
</linearGradient>
<linearGradient id="paint4_linear_9_963" x1="182.819" y1="84.814" x2="197.72" y2="46.6405" gradientUnits="userSpaceOnUse">
<stop stop-color="#49A0F2"/>
<stop offset="1" stop-color="#F7F7FF"/>
</linearGradient>
<linearGradient id="paint5_linear_9_963" x1="157.994" y1="104.648" x2="157.994" y2="136.397" gradientUnits="userSpaceOnUse">
<stop stop-color="#49A1F3"/>
<stop offset="1" stop-color="#85C4FF"/>
</linearGradient>
<linearGradient id="paint6_linear_9_963" x1="195.275" y1="77.3445" x2="170.857" y2="89.7716" gradientUnits="userSpaceOnUse">
<stop stop-color="#49A0F2"/>
<stop offset="1" stop-color="#F7F7FF"/>
</linearGradient>
<linearGradient id="paint7_linear_9_963" x1="187.283" y1="79.1459" x2="175.55" y2="27.9818" gradientUnits="userSpaceOnUse">
<stop stop-color="#49A0F2"/>
<stop offset="1" stop-color="#F7F7FF"/>
</linearGradient>
<linearGradient id="paint8_linear_9_963" x1="144.214" y1="84.8104" x2="174.453" y2="103.229" gradientUnits="userSpaceOnUse">
<stop stop-color="#49A0F2"/>
<stop offset="1" stop-color="#F7F7FF"/>
</linearGradient>
<linearGradient id="paint9_linear_9_963" x1="134.767" y1="104.648" x2="134.767" y2="124.511" gradientUnits="userSpaceOnUse">
<stop stop-color="#49A1F3"/>
<stop offset="1" stop-color="#85C4FF"/>
</linearGradient>
<linearGradient id="paint10_linear_9_963" x1="180.08" y1="111.305" x2="180.08" y2="124.511" gradientUnits="userSpaceOnUse">
<stop stop-color="#49A1F3"/>
<stop offset="1" stop-color="#85C4FF"/>
</linearGradient>
<linearGradient id="paint11_linear_9_963" x1="180.08" y1="104.695" x2="180.08" y2="108.547" gradientUnits="userSpaceOnUse">
<stop stop-color="#49A1F3"/>
<stop offset="1" stop-color="#85C4FF"/>
</linearGradient>
<linearGradient id="paint12_linear_9_963" x1="219.072" y1="128.281" x2="232.2" y2="103.26" gradientUnits="userSpaceOnUse">
<stop stop-color="#49A0F2"/>
<stop offset="1" stop-color="#F7F7FF"/>
</linearGradient>
<linearGradient id="paint13_linear_9_963" x1="93.848" y1="105.31" x2="102.046" y2="89.684" gradientUnits="userSpaceOnUse">
<stop stop-color="#49A0F2"/>
<stop offset="1" stop-color="#F7F7FF"/>
</linearGradient>
<linearGradient id="paint14_linear_9_963" x1="122.385" y1="61.0391" x2="135.512" y2="36.0174" gradientUnits="userSpaceOnUse">
<stop stop-color="#49A0F2"/>
<stop offset="1" stop-color="#F7F7FF"/>
</linearGradient>
<linearGradient id="paint15_linear_9_963" x1="5.20839" y1="4.2497" x2="1.37956" y2="-3.04833" gradientUnits="userSpaceOnUse">
<stop stop-color="#49A0F2"/>
<stop offset="1" stop-color="#F7F7FF"/>
</linearGradient>
<linearGradient id="paint16_linear_9_963" x1="228.18" y1="67.3095" x2="239.128" y2="71.6399" gradientUnits="userSpaceOnUse">
<stop stop-color="#49A0F2"/>
<stop offset="1" stop-color="#F7F7FF"/>
</linearGradient>
<linearGradient id="paint17_linear_9_963" x1="252.467" y1="145.631" x2="247.259" y2="129.684" gradientUnits="userSpaceOnUse">
<stop stop-color="#49A0F2"/>
<stop offset="1" stop-color="#F7F7FF"/>
</linearGradient>
<linearGradient id="paint18_linear_9_963" x1="8.29166" y1="6.76544" x2="2.19623" y2="-4.85288" gradientUnits="userSpaceOnUse">
<stop stop-color="#49A0F2"/>
<stop offset="1" stop-color="#F7F7FF"/>
</linearGradient>
</defs>
</svg>