<svg width="14" height="14" viewBox="0 0 14 14" fill="none" xmlns="http://www.w3.org/2000/svg">
<path d="M8.97743 3.03916L9.79993 4.68415C9.91076 4.91166 10.2083 5.12749 10.4591 5.17416L11.9466 5.41916C12.8974 5.57666 13.1191 6.26499 12.4366 6.95332L11.2758 8.11416C11.0833 8.30666 10.9724 8.68582 11.0366 8.95999L11.3691 10.395C11.6316 11.5267 11.0249 11.97 10.0274 11.375L8.63326 10.5467C8.38243 10.395 7.96243 10.395 7.71159 10.5467L6.31743 11.375C5.31993 11.9642 4.71326 11.5267 4.97576 10.395L5.30826 8.95999C5.36076 8.67999 5.24993 8.30082 5.05743 8.10832L3.89659 6.94749C3.21409 6.26499 3.43576 5.57666 4.38659 5.41332L5.87409 5.16832C6.12493 5.12749 6.42243 4.90582 6.53326 4.67832L7.35576 3.03332C7.80493 2.14665 8.52826 2.14666 8.97743 3.03916Z" fill="#F6D399"/>
<path d="M4.66675 3.35416H1.16675C0.927581 3.35416 0.729248 3.15582 0.729248 2.91666C0.729248 2.67749 0.927581 2.47916 1.16675 2.47916H4.66675C4.90591 2.47916 5.10425 2.67749 5.10425 2.91666C5.10425 3.15582 4.90591 3.35416 4.66675 3.35416Z" fill="#F6D399"/>
<path d="M2.91675 11.5208H1.16675C0.927581 11.5208 0.729248 11.3225 0.729248 11.0833C0.729248 10.8442 0.927581 10.6458 1.16675 10.6458H2.91675C3.15591 10.6458 3.35425 10.8442 3.35425 11.0833C3.35425 11.3225 3.15591 11.5208 2.91675 11.5208Z" fill="#F6D399"/>
<path d="M1.75008 7.4375H1.16675C0.927581 7.4375 0.729248 7.23917 0.729248 7C0.729248 6.76083 0.927581 6.5625 1.16675 6.5625H1.75008C1.98925 6.5625 2.18758 6.76083 2.18758 7C2.18758 7.23917 1.98925 7.4375 1.75008 7.4375Z" fill="#F6D399"/>
</svg>
